PathFileType	4	(X/Y/Z)	C:/Users/opensim2020/Desktop/walking_exp_matlab/subject02_walking11_straight_02.trc	
DataRate	CameraRate	NumFrames	NumMarkers	Units	OrigDataRate	OrigDataStartFrame	OrigNumFrames	
100.00	100.00	6	42	mm	100.00	1777	230	
Frame#	Time	LFHD			RFHD			LBHD			RBHD			C7			T10			CLAV			STRN			RBAK			LSHO			LUPA			LELB			LFRM			LWRA			LWRB			LFIN			RSHO			RUPA			RELB			RFRM			RWRA			RWRB			RFIN			LASI			RASI			LPSI			RPSI			LTHI			LKNE			LTIB			LANK			LHEE			LTOE			RTHI			RKNE			RTIB			RANK			RHEE			RTOE			*39			*40			*41			
		X1	Y1	Z1	X2	Y2	Z2	X3	Y3	Z3	X4	Y4	Z4	X5	Y5	Z5	X6	Y6	Z6	X7	Y7	Z7	X8	Y8	Z8	X9	Y9	Z9	X10	Y10	Z10	X11	Y11	Z11	X12	Y12	Z12	X13	Y13	Z13	X14	Y14	Z14	X15	Y15	Z15	X16	Y16	Z16	X17	Y17	Z17	X18	Y18	Z18	X19	Y19	Z19	X20	Y20	Z20	X21	Y21	Z21	X22	Y22	Z22	X23	Y23	Z23	X24	Y24	Z24	X25	Y25	Z25	X26	Y26	Z26	X27	Y27	Z27	X28	Y28	Z28	X29	Y29	Z29	X30	Y30	Z30	X31	Y31	Z31	X32	Y32	Z32	X33	Y33	Z33	X34	Y34	Z34	X35	Y35	Z35	X36	Y36	Z36	X37	Y37	Z37	X38	Y38	Z38	X39	Y39	Z39	X40	Y40	Z40	X41	Y41	Z41	X42	Y42	Z42	

144	1.430	-943.60944	-211.32729	1725.98425	-1087.15942	-212.97737	1714.10828	-941.11786	-74.06894	1664.65344	-1084.74451	-62.98503	1652.02295	-1021.19696	-16.36348	1523.17017	-1021.38721	33.21907	1243.80225	-1006.59821	-155.43039	1453.96155	-1019.68365	-209.83765	1283.84888	-1085.04407	40.61102	1345.99146	-839.26215	-79.12164	1493.39319	-753.84448	-59.36295	1292.96948	-739.16315	-54.80742	1152.86340	-722.38318	-67.65976	1022.37061	-747.54102	-126.37278	897.31543	-716.65961	-78.57551	899.98193	-708.94696	-99.52219	837.53479	-1206.32715	-95.93272	1489.49890	-1285.43652	-78.44294	1292.73804	-1298.46643	-103.42272	1147.72156	-1315.26184	-144.60500	1034.42004	-1294.56665	-207.51129	914.52307	-1326.51782	-161.58621	905.83722	-1326.45947	-204.99327	846.37537	-887.07092	-218.52136	996.20007	-1142.14734	-197.39838	963.89984	-951.67474	-0.75517	1031.51782	-1065.50891	13.16077	1022.44733	-825.94757	-175.82948	685.83636	-855.46686	-155.48547	480.88589	-858.17413	-111.83652	289.34998	-901.38306	-126.54574	68.61551	-954.49005	-93.46056	41.22787	-886.27960	-283.04825	32.67663	-1220.28687	-110.94345	663.81604	-1220.85498	-118.00677	466.13696	-1218.90784	28.46908	357.14865	-1182.23828	165.07593	223.28151	-1116.01465	211.84798	200.39328	-1223.87500	117.59637	73.59516	-1032.06433	-119.18678	1805.60571						 
145	1.440	-942.30762	-219.21487	1726.57825	-1085.73926	-220.71204	1714.77783	-939.78680	-82.02477	1664.91650	-1083.12537	-70.83275	1652.75146	-1019.25061	-24.14638	1523.97119	-1018.84399	26.52506	1244.82605	-1005.27478	-162.99187	1454.50952	-1018.32690	-217.00064	1284.13855	-1082.50378	33.41207	1346.60583	-837.51642	-87.80122	1494.26917	-751.39001	-70.64833	1293.52966	-736.14502	-68.59669	1153.49878	-719.82867	-83.47462	1023.12140	-746.04034	-145.20552	899.72620	-714.39563	-98.38956	901.25519	-706.82361	-121.69716	839.70062	-1204.72009	-102.99674	1489.81104	-1283.64954	-84.44034	1293.12659	-1296.77466	-108.43187	1148.01904	-1314.31836	-148.08661	1034.44202	-1294.10938	-209.33394	913.72498	-1325.66797	-163.02464	905.54480	-1325.98901	-205.50247	845.64001	-885.56525	-225.51408	995.44153	-1141.55933	-203.46606	964.88495	-949.67401	-7.41152	1032.32324	-1063.10815	6.95206	1023.10974	-825.16309	-180.82224	685.58026	-855.06024	-157.90680	480.74207	-858.15790	-112.85528	289.56879	-901.58496	-126.60544	68.66051	-954.64545	-93.61967	41.13078	-886.20880	-283.10721	32.63567	-1219.59900	-123.25582	665.01703	-1219.50891	-133.63962	467.80829	-1216.63440	12.25520	358.08044	-1179.91760	147.17368	222.32994	-1113.46753	192.98407	196.96542	-1226.06274	97.34389	75.20479	-1030.28687	-126.94794	1806.06494	-3356.96240	2846.03687	1034.18005			 
146	1.450	-941.03314	-227.19293	1727.03943	-1084.55579	-228.50133	1715.29443	-938.13989	-90.01971	1665.65723	-1081.73035	-78.57170	1653.40649	-1017.55634	-32.01146	1524.88757	-1016.37219	18.85357	1245.71191	-1003.91479	-170.64124	1454.99487	-1016.97595	-224.06709	1284.44409	-1079.53918	26.10411	1347.29675	-835.89447	-96.50953	1495.22302	-749.22046	-82.25954	1294.51624	-733.20148	-82.48442	1154.45679	-717.34314	-100.48095	1024.35510	-744.75293	-164.39833	902.54486	-712.22070	-117.87418	902.77765	-704.77478	-142.94783	842.09924	-1203.08203	-110.07333	1490.28601	-1281.74048	-90.56500	1293.56152	-1295.58398	-113.13527	1148.48560	-1313.13855	-151.24805	1034.40540	-1293.63489	-211.24069	912.93878	-1324.97363	-164.70021	905.45160	-1325.70605	-206.45918	844.80292	-884.14154	-232.02374	994.81299	-1140.75867	-210.50487	966.36133	-948.02411	-13.82558	1033.11414	-1061.20520	0.63467	1023.82507	-824.26440	-185.45934	685.28015	-854.74335	-160.37494	480.64560	-858.34595	-113.84129	289.76056	-901.77631	-126.66514	68.76016	-954.76587	-94.03161	41.06322	-886.15924	-283.18884	32.59070	-1219.03040	-135.62430	666.27728	-1218.12158	-148.96283	469.46857	-1214.50830	-4.10278	358.32129	-1177.85315	128.60219	220.36200	-1111.48901	173.73477	192.84294	-1227.67358	75.87508	75.93649	-1029.03809	-134.80006	1806.71741	-3356.88354	2845.81738	1034.18420			 
147	1.460	-940.43054	-235.48590	1727.33093	-1083.59973	-236.24785	1715.68689	-937.04333	-97.88754	1666.49097	-1080.46509	-86.25294	1653.92737	-1015.75140	-39.48878	1525.58765	-1013.87360	11.81640	1246.65698	-1002.64624	-177.85687	1455.26526	-1015.57208	-231.04219	1284.64783	-1077.03906	18.83310	1347.78821	-834.36163	-105.09762	1496.21875	-747.17072	-93.47298	1295.61096	-730.39807	-96.43269	1155.51074	-714.86334	-118.45005	1025.97192	-743.63556	-183.65494	905.61652	-710.22028	-137.32117	904.68018	-703.06946	-164.85107	844.82593	-1201.52979	-117.19396	1490.70911	-1280.61365	-96.58108	1294.22168	-1294.00464	-117.90651	1148.95996	-1312.06055	-154.86436	1034.66626	-1293.19971	-213.23065	912.33319	-1324.44153	-166.49959	905.54163	-1325.44324	-207.42378	844.50793	-882.58710	-238.35910	994.46106	-1139.82178	-216.59001	967.91101	-946.58606	-20.13004	1033.63794	-1059.66589	-5.87252	1024.39172	-823.42365	-190.08633	684.84906	-854.56415	-162.91086	480.51855	-858.56622	-114.57002	289.99866	-901.96674	-126.73466	68.84571	-955.15448	-92.30955	41.77330	-886.06775	-283.26309	32.54750	-1218.51929	-147.97426	667.52722	-1216.84302	-163.92577	471.08557	-1212.48535	-20.60766	357.96042	-1176.12207	109.51881	217.54802	-1109.75488	153.94882	187.73904	-1228.84326	53.22633	75.96968	-1027.94470	-142.73586	1807.18140	-3356.82373	2845.91333	1034.21265			 
148	1.470	-939.40057	-243.39694	1727.87659	-1082.75562	-244.01054	1715.89001	-935.88922	-105.96317	1666.88977	-1079.15466	-93.97459	1654.35559	-1014.05640	-47.07837	1526.26379	-1011.54645	4.94913	1247.55786	-1001.42883	-185.31560	1455.66882	-1014.22479	-237.96954	1284.81958	-1075.16003	11.98934	1348.71802	-832.97443	-113.62998	1497.23450	-745.08685	-105.07877	1296.93689	-727.68280	-110.55408	1156.83142	-712.75330	-134.69249	1027.18457	-742.55188	-202.59189	908.84662	-708.39777	-157.29901	906.74890	-701.36719	-186.29236	847.74847	-1200.11035	-124.40816	1490.99438	-1279.25867	-102.65783	1294.83020	-1292.47961	-122.63828	1149.47632	-1311.00146	-158.14111	1034.98108	-1292.77148	-215.29158	911.87329	-1323.89307	-168.43538	905.69598	-1325.24377	-208.68881	844.19885	-880.99414	-244.52434	994.41699	-1138.56165	-222.63924	969.55231	-945.53705	-26.32395	1033.98242	-1058.56238	-12.43173	1024.94666	-822.75751	-194.17451	684.43665	-854.42328	-165.38940	480.39948	-858.78516	-115.67564	290.23441	-902.14783	-126.80621	68.94035	-955.53894	-92.85382	41.42488	-886.00513	-283.34357	32.48826	-1218.09656	-160.21021	668.83325	-1215.39392	-178.73497	472.60059	-1210.41382	-37.36110	356.84860	-1174.79126	89.81398	213.84096	-1108.89063	133.74594	182.04468	-1229.65527	29.42384	75.27436	-1027.13904	-150.87009	1807.79480	-3357.04102	2845.98999	1034.14600			 
149	1.480	-939.05811	-251.88489	1728.24890	-1082.19263	-251.79094	1715.93701	-935.05115	-114.31850	1667.49634	-1078.09460	-101.61497	1654.79932	-1012.60107	-54.84967	1526.91943	-1009.34552	-1.32748	1248.44202	-1000.19684	-193.00778	1456.10132	-1012.86328	-244.89835	1284.98401	-1073.64172	5.22148	1349.46460	-831.69562	-122.12325	1498.20508	-743.05756	-116.34167	1298.15723	-725.25439	-124.35918	1158.13416	-710.68134	-151.95761	1029.32056	-741.59656	-221.67642	912.35974	-706.60535	-176.90146	909.06909	-699.78522	-207.53293	851.22607	-1198.68115	-131.43599	1491.35571	-1277.62512	-108.69827	1295.38428	-1291.21069	-127.13097	1150.06995	-1310.30884	-161.62445	1035.21350	-1292.49963	-217.53195	911.55786	-1323.26123	-170.66606	905.79541	-1325.12805	-210.11353	844.03046	-879.63062	-250.35100	994.65826	-1137.04846	-228.89020	971.19189	-944.73706	-32.37492	1034.10730	-1057.84192	-18.98368	1025.44202	-822.29565	-197.94054	684.09039	-854.29413	-168.01280	480.21509	-858.92999	-117.05717	290.46341	-902.29266	-126.91422	69.01102	-955.42078	-92.50751	41.89800	-885.93103	-283.41245	32.41396	-1217.65295	-172.22490	670.11700	-1214.11670	-193.37318	474.02750	-1209.03723	-54.10407	355.56595	-1173.63879	69.46232	209.34775	-1107.87500	112.74946	175.39273	-1230.10095	4.62340	73.93962	-1026.34045	-158.88489	1808.15820	-3356.94238	2845.89502	1034.23401			 
